<svg xmlns="http://www.w3.org/2000/svg" xmlns:xlink="http://www.w3.org/1999/xlink" viewBox="0 0 2288.85 383.94"><defs><style>.cls-1{fill:#7ccdcb;}.cls-2{fill:url(#linear-gradient);}.cls-3{font-size:320px;stroke:#231f20;stroke-miterlimit:10;font-family:FLOGREEN;}.cls-4{letter-spacing:-0.02em;}.cls-5{letter-spacing:-0.03em;}.cls-6{fill:url(#linear-gradient-9);}</style><linearGradient id="linear-gradient" x1="123.95" y1="685.64" x2="1203.71" y2="685.64" gradientUnits="userSpaceOnUse"><stop offset="0" stop-color="#2484c6"/><stop offset="1" stop-color="#2484c6" stop-opacity="0"/></linearGradient><linearGradient id="linear-gradient-9" x1="1444.47" y1="698.5" x2="2593.02" y2="698.5" xlink:href="#linear-gradient"/></defs><g id="Layer_1" data-name="Layer 1"><ellipse class="cls-1" cx="1099.34" cy="342.11" rx="228.49" ry="39"/><ellipse class="cls-1" cx="1099.34" cy="230.05" rx="141.21" ry="24.1"/><ellipse class="cls-1" cx="1098.21" cy="151" rx="87.28" ry="14.9"/><ellipse class="cls-1" cx="1099.34" cy="86.84" rx="53.94" ry="9.21"/></g><g id="Layer_3" data-name="Layer 3"><path class="cls-2" d="M228.45,533.72q2.88,2.88,2.88,8a10.5,10.5,0,0,1-2.88,7.52,9.68,9.68,0,0,1-7.36,3H161.25v71.36h47.36a10.24,10.24,0,0,1,7.52,3,11,11,0,0,1,3,8.16,9.81,9.81,0,0,1-3,7.2,10.2,10.2,0,0,1-7.52,3H161.25V779.8a10.19,10.19,0,0,1-3,7.52,9.84,9.84,0,0,1-7.2,3,11.14,11.14,0,0,1-8-3,10,10,0,0,1-3.2-7.52V541.72a10.23,10.23,0,0,1,3.2-8,11.51,11.51,0,0,1,8-2.88h70.08A10,10,0,0,1,228.45,533.72Z" transform="translate(-123.95 -500.1)"/><path class="cls-2" d="M273.57,554.52a11.55,11.55,0,0,1-8.32-3q-3.21-3-3.2-9.12a11.56,11.56,0,0,1,3.2-8,10.73,10.73,0,0,1,8.32-3.52q6.07,0,9.12,3.52a12,12,0,0,1,3,8Q285.73,554.53,273.57,554.52Zm0,47c3.62,0,6.4,1,8.32,3a10.53,10.53,0,0,1,2.88,7.52V779.48a11.07,11.07,0,0,1-2.88,7.68c-1.92,2.14-4.7,3.2-8.32,3.2a9.92,9.92,0,0,1-7.52-3.2,10.73,10.73,0,0,1-3-7.68V612.12a10.38,10.38,0,0,1,10.56-10.56Z" transform="translate(-123.95 -500.1)"/><path class="cls-2" d="M382.37,605.08a44.07,44.07,0,0,1,13.92,9.6,46,46,0,0,1,9.44,14.56,46.83,46.83,0,0,1,3.52,18.08,10.77,10.77,0,0,1-3,7.68,10,10,0,0,1-7.52,3.2,10.93,10.93,0,0,1-10.88-10.88q0-10.23-6.56-16.8A21.62,21.62,0,0,0,365.41,624H337.89V779.8a9.91,9.91,0,0,1-10.56,10.56,11.07,11.07,0,0,1-7.68-2.88,9.8,9.8,0,0,1-3.2-7.68V613.4a11,11,0,0,1,11.84-11.84h37.12A41.79,41.79,0,0,1,382.37,605.08Z" transform="translate(-123.95 -500.1)"/><path class="cls-2" d="M498.85,672.28a42.18,42.18,0,0,1,13.76,9.6,45.57,45.57,0,0,1,9.12,14.4,46.59,46.59,0,0,1,3.36,17.6V746.2a45.34,45.34,0,0,1-3.36,17.44,43.85,43.85,0,0,1-9.12,14.08A41.21,41.21,0,0,1,498.85,787a43.39,43.39,0,0,1-17,3.36h-5.12A41.38,41.38,0,0,1,460.29,787a43.33,43.33,0,0,1-13.76-9.28,44.49,44.49,0,0,1-9.44-14.08,43.49,43.49,0,0,1-3.52-17.44V710.68a11.67,11.67,0,0,1,3.2-8.64,11.23,11.23,0,0,1,15.36-.32q2.88,2.88,2.88,8V746.2q0,9.93,6.24,16.32a20.78,20.78,0,0,0,15.52,6.4h5.12a20.8,20.8,0,0,0,15.52-6.4q6.24-6.39,6.24-16.32V713.88a22,22,0,0,0-6.24-16,20.83,20.83,0,0,0-15.52-6.4h-5.12a42.13,42.13,0,0,1-30.08-12.64,47.09,47.09,0,0,1-9.28-13.76,44.31,44.31,0,0,1-3.84-16.8v-2.56a41.63,41.63,0,0,1,3.52-17,47.23,47.23,0,0,1,9.44-14.08,44.4,44.4,0,0,1,13.76-9.6,39.87,39.87,0,0,1,16.48-3.52,41.79,41.79,0,0,1,17,3.52,44.07,44.07,0,0,1,13.92,9.6,45.14,45.14,0,0,1,9.28,14.08,43.39,43.39,0,0,1,3.36,17v1.6a10,10,0,0,1-3.2,7.52,10.76,10.76,0,0,1-7.68,3,10.07,10.07,0,0,1-7.68-3,10.5,10.5,0,0,1-2.88-7.52v-1.6a22.69,22.69,0,0,0-22.08-22.4A20.31,20.31,0,0,0,461.25,630,22.32,22.32,0,0,0,455,645.72v1.6a24.12,24.12,0,0,0,6.56,15,19.75,19.75,0,0,0,15.2,6.4h5.12A41.79,41.79,0,0,1,498.85,672.28Z" transform="translate(-123.95 -500.1)"/><path class="cls-2" d="M635.48,771.48a12,12,0,0,1,3.2,8.32,10,10,0,0,1-3.2,7.52,10.73,10.73,0,0,1-7.68,3h-4.48a39.75,39.75,0,0,1-16.48-3.52,45.62,45.62,0,0,1-13.76-9.44,45.08,45.08,0,0,1-9.44-13.92,41.56,41.56,0,0,1-3.52-17V623.64H557.4a11.3,11.3,0,0,1-7.84-3,10.44,10.44,0,0,1-3.36-8.16,10.25,10.25,0,0,1,3.36-7.68,11,11,0,0,1,7.84-3.2h22.72V541.4q0-3.51,3.52-7a11.05,11.05,0,0,1,8-3.52,9.57,9.57,0,0,1,7.52,3.52,10.83,10.83,0,0,1,3,7v60.16h25.6a10.93,10.93,0,0,1,10.88,10.88,10.68,10.68,0,0,1-10.88,11.2H602.2V746.52a20.26,20.26,0,0,0,6.4,15.36A20.72,20.72,0,0,0,623.32,768h4.48A10,10,0,0,1,635.48,771.48Z" transform="translate(-123.95 -500.1)"/><path class="cls-2" d="M761.88,779.8q0,5.44-2.88,8a11.12,11.12,0,0,1-7.68,2.56h-40a38.08,38.08,0,0,1-16-3.36,43.34,43.34,0,0,1-12.8-8.8,45.83,45.83,0,0,1-9-12.8,43.75,43.75,0,0,1-4.16-15.68v-176a39.75,39.75,0,0,1,3.52-16.48,43.87,43.87,0,0,1,9.44-13.6,46.89,46.89,0,0,1,13.92-9.28,42.51,42.51,0,0,1,17.28-3.52H718a43.32,43.32,0,0,1,17.6,3.52,44.76,44.76,0,0,1,13.76,9.28,43,43,0,0,1,9.12,13.6,41.42,41.42,0,0,1,3.36,16.48v14.72a12.55,12.55,0,0,1-2.56,7.84c-1.71,2.24-4.37,3.36-8,3.36a9.61,9.61,0,0,1-7.68-3.36,11.67,11.67,0,0,1-2.88-7.84V573.72A20.32,20.32,0,0,0,734,558.2,22.7,22.7,0,0,0,718,552h-4.48a22.7,22.7,0,0,0-16,6.24,20.32,20.32,0,0,0-6.72,15.52V746.84a20.17,20.17,0,0,0,6.72,15.68,23,23,0,0,0,16,6.08h27.2V645.4H714.52a11,11,0,0,1-7.84-3.2,10.22,10.22,0,0,1-3.36-7.68A11.2,11.2,0,0,1,714.52,623h36.8a9.84,9.84,0,0,1,7.68,3.2,12,12,0,0,1,2.88,8.32Z" transform="translate(-123.95 -500.1)"/><path class="cls-2" d="M857.4,667.64A21.59,21.59,0,0,0,864,651.8v-6.08A21.77,21.77,0,0,0,857.4,630a21,21,0,0,0-15.52-6.72h-5.44a21,21,0,0,0-16,6.88,23,23,0,0,0-6.4,16.16V746.52a22.74,22.74,0,0,0,6.4,15.68,20.71,20.71,0,0,0,16,7h5.44a20.31,20.31,0,0,0,15.52-6.72,25.42,25.42,0,0,0,6.88-16q-.31-5.76,3-9.12a10.74,10.74,0,0,1,7.84-3.36,9.42,9.42,0,0,1,7.2,3.36q3,3.36,3,9.12a43.32,43.32,0,0,1-3.36,17,44.23,44.23,0,0,1-9.12,13.92,43.16,43.16,0,0,1-13.76,9.44,42.35,42.35,0,0,1-17.28,3.52h-5.44a41.56,41.56,0,0,1-17-3.52,44.65,44.65,0,0,1-23.36-23.36,41.56,41.56,0,0,1-3.52-17V646.36a43.52,43.52,0,0,1,3.52-17.44,46.62,46.62,0,0,1,9.44-14.24,44,44,0,0,1,13.92-9.6,41.72,41.72,0,0,1,17-3.52h5.44a40.67,40.67,0,0,1,16.8,3.52,46,46,0,0,1,13.76,9.44,44.94,44.94,0,0,1,9.44,14.08,42.73,42.73,0,0,1,3.52,17.12v6.08A44.14,44.14,0,0,1,882,669.08a46.27,46.27,0,0,1-9.12,14.08,40,40,0,0,1-13.76,9.44A44.14,44.14,0,0,1,841.88,696h-3.52a11.64,11.64,0,0,1-8.64-3.2,10.82,10.82,0,0,1-3.2-8,10,10,0,0,1,3.2-7.52,12,12,0,0,1,8.64-3h3.52A21.19,21.19,0,0,0,857.4,667.64Z" transform="translate(-123.95 -500.1)"/><path class="cls-2" d="M981.72,605.08a44.53,44.53,0,0,1,13.44,9.44,44,44,0,0,1,9.12,14.08,45.38,45.38,0,0,1,3.36,17.44V779.8a10.38,10.38,0,0,1-2.88,7.68q-2.88,2.88-8,2.88a10.5,10.5,0,0,1-7.52-2.88,10.07,10.07,0,0,1-3-7.68V646A22.18,22.18,0,0,0,980,630.2a19.85,19.85,0,0,0-14.88-6.56H937.56V779.8a9.84,9.84,0,0,1-3.2,7.68,11.11,11.11,0,0,1-7.68,2.88,9.91,9.91,0,0,1-10.56-10.56V612.44a10.76,10.76,0,0,1,3-7.68,10,10,0,0,1,7.52-3.2h38.4A39.57,39.57,0,0,1,981.72,605.08Z" transform="translate(-123.95 -500.1)"/><text class="cls-3" transform="translate(0.5 290.26)">Fi<tspan class="cls-4" x="176.64" y="0">r</tspan><tspan class="cls-5" x="293.75" y="0">s</tspan><tspan x="406.39" y="0">tGen</tspan></text><path class="cls-6" d="M1536.81,612.82a11.3,11.3,0,0,1-7.84-3,9.1,9.1,0,0,1-3.36-6.88v-15a21.92,21.92,0,0,0-6.08-15.68,19.56,19.56,0,0,0-14.72-6.4h-1.6a20.26,20.26,0,0,0-15.36,6.4,21.88,21.88,0,0,0-6.08,15.68v27.2a21.88,21.88,0,0,0,6.08,15.68,20.26,20.26,0,0,0,15.36,6.4h9a40.51,40.51,0,0,1,16.8,3.52,43.87,43.87,0,0,1,13.6,9.44,42,42,0,0,1,9,14.08,46.56,46.56,0,0,1,3.2,17.12v78.08a46.14,46.14,0,0,1-3.2,17.28,42.38,42.38,0,0,1-9,13.92,41.66,41.66,0,0,1-13.6,9.28,42.22,42.22,0,0,1-16.8,3.36h-9a42.15,42.15,0,0,1-16.8-3.36,41.56,41.56,0,0,1-13.6-9.28,44.41,44.41,0,0,1-12.48-31.2v-36.8a10.73,10.73,0,0,1,3-7.68,10.33,10.33,0,0,1,7.84-3.2,10,10,0,0,1,7.52,3.2,10.77,10.77,0,0,1,3,7.68v36.8q0,9.6,6.08,15.84a20.53,20.53,0,0,0,15.36,6.24h9a20.31,20.31,0,0,0,14.88-6.24,21.46,21.46,0,0,0,6.24-15.84V681.3a22.7,22.7,0,0,0-6.24-16,19.62,19.62,0,0,0-14.88-6.72h-9a42.15,42.15,0,0,1-16.8-3.36,41.92,41.92,0,0,1-22.72-22.88,44.14,44.14,0,0,1-3.36-17.28v-27.2a43.35,43.35,0,0,1,3.36-17,46.39,46.39,0,0,1,9.12-14.08,42.58,42.58,0,0,1,13.6-9.6,40.44,40.44,0,0,1,16.8-3.52h1.6a39.41,39.41,0,0,1,16.64,3.52,43.14,43.14,0,0,1,13.44,9.6A46.39,46.39,0,0,1,1544,570.9a43.35,43.35,0,0,1,3.36,17v15a9.52,9.52,0,0,1-3,6.88A10.22,10.22,0,0,1,1536.81,612.82Z" transform="translate(-123.95 -500.1)"/><path class="cls-6" d="M1677,759.06a43.32,43.32,0,0,1-3.52,17.6,45.49,45.49,0,0,1-9.44,13.92,42.58,42.58,0,0,1-14.08,9.28,44.54,44.54,0,0,1-17.12,3.36h-4.48a42.15,42.15,0,0,1-16.8-3.36,41.56,41.56,0,0,1-13.6-9.28,44.46,44.46,0,0,1-9.12-13.92,45,45,0,0,1-3.36-17.6V659.54a46,46,0,0,1,12.48-32,42.58,42.58,0,0,1,13.6-9.6,40.44,40.44,0,0,1,16.8-3.52h4.48a42.73,42.73,0,0,1,17.12,3.52,43.55,43.55,0,0,1,14.08,9.6,46.87,46.87,0,0,1,9.44,14.24,44.47,44.47,0,0,1,3.52,17.76Zm-44.16,22.72a20.47,20.47,0,0,0,15.36-6.72,22.42,22.42,0,0,0,6.4-16V659.54a22.42,22.42,0,0,0-6.4-16,20.47,20.47,0,0,0-15.36-6.72h-4.48a20,20,0,0,0-15.2,6.72,22.7,22.7,0,0,0-6.24,16v99.52a22.7,22.7,0,0,0,6.24,16,20,20,0,0,0,15.2,6.72Z" transform="translate(-123.95 -500.1)"/><path class="cls-6" d="M1718.24,803.22a10.51,10.51,0,0,1-7.52-2.88,10.07,10.07,0,0,1-3-7.68V554.26a10.07,10.07,0,0,1,3-7.68,10.51,10.51,0,0,1,7.52-2.88q5.44,0,8.32,2.88a10.38,10.38,0,0,1,2.88,7.68v238.4a10.38,10.38,0,0,1-2.88,7.68Q1723.68,803.22,1718.24,803.22Z" transform="translate(-123.95 -500.1)"/><path class="cls-6" d="M1842.08,614.1a9.75,9.75,0,0,1,7.52,3.36,11.76,11.76,0,0,1,3,8.16V758.74a41.76,41.76,0,0,1-3.52,17,47.48,47.48,0,0,1-9.44,14.08,46.22,46.22,0,0,1-13.92,9.76,40.19,40.19,0,0,1-17,3.68H1804a44.57,44.57,0,0,1-17.28-4,46,46,0,0,1-13.92-9.76,45.3,45.3,0,0,1-9.28-13.92,42.22,42.22,0,0,1-3.36-16.8V625.62a11.37,11.37,0,0,1,3.2-8.16,10.22,10.22,0,0,1,7.68-3.36q5.12,0,7.84,3.36a12.57,12.57,0,0,1,2.72,8.16V758.74a22.69,22.69,0,0,0,22.4,22.08h4.8a22.69,22.69,0,0,0,22.4-22.08V625.62a12.52,12.52,0,0,1,2.72-8.16Q1836.64,614.1,1842.08,614.1Z" transform="translate(-123.95 -500.1)"/><path class="cls-6" d="M1972.64,784.34a12,12,0,0,1,3.2,8.32,10,10,0,0,1-3.2,7.52,10.76,10.76,0,0,1-7.68,3h-4.48A39.71,39.71,0,0,1,1944,799.7a45.68,45.68,0,0,1-13.76-9.44,45.14,45.14,0,0,1-9.44-13.92,41.59,41.59,0,0,1-3.52-17V636.5h-22.72a11.3,11.3,0,0,1-7.84-3,10.47,10.47,0,0,1-3.36-8.16,10.22,10.22,0,0,1,3.36-7.68,11,11,0,0,1,7.84-3.2h22.72V554.26c0-2.35,1.17-4.69,3.52-7a11,11,0,0,1,8-3.52,9.55,9.55,0,0,1,7.52,3.52,10.86,10.86,0,0,1,3,7v60.16H1965a10.93,10.93,0,0,1,10.88,10.88A10.68,10.68,0,0,1,1965,636.5h-25.6V759.38a20.26,20.26,0,0,0,6.4,15.36,20.75,20.75,0,0,0,14.72,6.08H1965A10,10,0,0,1,1972.64,784.34Z" transform="translate(-123.95 -500.1)"/><path class="cls-6" d="M2018.08,567.38a11.59,11.59,0,0,1-8.33-3q-3.2-3-3.19-9.12a11.57,11.57,0,0,1,3.19-8,10.73,10.73,0,0,1,8.33-3.52q6.08,0,9.12,3.52a11.94,11.94,0,0,1,3,8Q2030.24,567.39,2018.08,567.38Zm0,47c3.62,0,6.4,1,8.32,3a10.51,10.51,0,0,1,2.88,7.52V792.34a11.07,11.07,0,0,1-2.88,7.68c-1.92,2.13-4.7,3.2-8.32,3.2a9.94,9.94,0,0,1-7.52-3.2,10.73,10.73,0,0,1-3-7.68V625a10.38,10.38,0,0,1,10.56-10.56Z" transform="translate(-123.95 -500.1)"/><path class="cls-6" d="M2152.47,759.06a43.32,43.32,0,0,1-3.51,17.6,45.52,45.52,0,0,1-9.45,13.92,42.48,42.48,0,0,1-14.08,9.28,44.47,44.47,0,0,1-17.12,3.36h-4.48a42.13,42.13,0,0,1-16.79-3.36,41.49,41.49,0,0,1-13.61-9.28,44.46,44.46,0,0,1-9.12-13.92,45.17,45.17,0,0,1-3.35-17.6V659.54a46.38,46.38,0,0,1,3.35-17.76,45.84,45.84,0,0,1,9.12-14.24,42.51,42.51,0,0,1,13.61-9.6,40.43,40.43,0,0,1,16.79-3.52h4.48a42.66,42.66,0,0,1,17.12,3.52,43.45,43.45,0,0,1,14.08,9.6,46.89,46.89,0,0,1,9.45,14.24,44.47,44.47,0,0,1,3.51,17.76Zm-44.16,22.72a20.46,20.46,0,0,0,15.36-6.72,22.39,22.39,0,0,0,6.41-16V659.54a22.39,22.39,0,0,0-6.41-16,20.46,20.46,0,0,0-15.36-6.72h-4.48a20,20,0,0,0-15.2,6.72,22.7,22.7,0,0,0-6.24,16v99.52a22.7,22.7,0,0,0,6.24,16,20,20,0,0,0,15.2,6.72Z" transform="translate(-123.95 -500.1)"/><path class="cls-6" d="M2248.79,617.94a43.53,43.53,0,0,1,22.56,23.52,45.34,45.34,0,0,1,3.36,17.44V792.66a10.38,10.38,0,0,1-2.88,7.68q-2.88,2.88-8,2.88a10.51,10.51,0,0,1-7.52-2.88,10.07,10.07,0,0,1-3-7.68V658.9a22.14,22.14,0,0,0-6.24-15.84,19.85,19.85,0,0,0-14.88-6.56h-27.52V792.66a9.84,9.84,0,0,1-3.2,7.68,11.07,11.07,0,0,1-7.68,2.88,9.91,9.91,0,0,1-10.56-10.56V625.3a10.73,10.73,0,0,1,3-7.68,10,10,0,0,1,7.52-3.2h38.4A39.41,39.41,0,0,1,2248.79,617.94Z" transform="translate(-123.95 -500.1)"/><path class="cls-6" d="M2370.71,685.14a42.18,42.18,0,0,1,13.76,9.6,45.34,45.34,0,0,1,9.12,14.4,46.55,46.55,0,0,1,3.36,17.6v32.32a45.34,45.34,0,0,1-3.36,17.44,44,44,0,0,1-9.12,14.08,41.21,41.21,0,0,1-13.76,9.28,43.39,43.39,0,0,1-17,3.36h-5.12a41.38,41.38,0,0,1-16.48-3.36,43.33,43.33,0,0,1-13.76-9.28A44.6,44.6,0,0,1,2309,776.5a43.49,43.49,0,0,1-3.52-17.44V723.54a11.64,11.64,0,0,1,3.2-8.64,11.23,11.23,0,0,1,15.36-.32q2.88,2.88,2.88,8v36.48q0,9.91,6.24,16.32a20.78,20.78,0,0,0,15.52,6.4h5.12a20.8,20.8,0,0,0,15.52-6.4q6.24-6.4,6.24-16.32V726.74a22,22,0,0,0-6.24-16,20.8,20.8,0,0,0-15.52-6.4h-5.12a42.13,42.13,0,0,1-30.08-12.64,47.23,47.23,0,0,1-9.28-13.76,44.39,44.39,0,0,1-3.84-16.8v-2.56a41.59,41.59,0,0,1,3.52-17,47.11,47.11,0,0,1,9.44-14.08,44.4,44.4,0,0,1,13.76-9.6,39.71,39.71,0,0,1,16.48-3.52,41.63,41.63,0,0,1,17,3.52,44.07,44.07,0,0,1,13.92,9.6,45,45,0,0,1,9.28,14.08,43.35,43.35,0,0,1,3.36,17v1.6a10,10,0,0,1-3.2,7.52,10.76,10.76,0,0,1-7.68,3,10.07,10.07,0,0,1-7.68-3,10.51,10.51,0,0,1-2.88-7.52v-1.6a22.69,22.69,0,0,0-22.08-22.4,20.31,20.31,0,0,0-15.52,6.72,22.32,22.32,0,0,0-6.24,15.68v1.6a24.14,24.14,0,0,0,6.56,15,19.75,19.75,0,0,0,15.2,6.4h5.12A41.63,41.63,0,0,1,2370.71,685.14Z" transform="translate(-123.95 -500.1)"/><text class="cls-3" transform="translate(1321.02 303.11)">Solutions</text></g></svg>